PathFileType	4	(X/Y/Z)	C:/Users/opensim2020/Desktop/walking_exp_matlab/subject06_walking18_straight_04.trc																																																																																																																																											
DataRate	CameraRate	NumFrames	NumMarkers	Units	OrigDataRate	OrigDataStartFrame	OrigNumFrames																																																																																																																																							
100	100	8	47	mm	100	4521	409																																																																																																																																							
Frame#	Time	LFHD			RFHD			LBHD			RBHD			C7			T10			CLAV			STRN			RBAK			LSHO			LUPA			LELB			LFRM			LWRA			LWRB			LFIN			RSHO			RUPA			RELB			RFRM			RWRA			RWRB			RFIN			LASI			RASI			LPSI			RPSI			LTHI			LKNE			LTIB			LANK			LHEE			LTOE			RTHI			RKNE			RTIB			RANK			RHEE			RTOE			*39			*40			*41			*42			*43			*44			*45			*46		
		X1	Y1	Z1	X2	Y2	Z2	X3	Y3	Z3	X4	Y4	Z4	X5	Y5	Z5	X6	Y6	Z6	X7	Y7	Z7	X8	Y8	Z8	X9	Y9	Z9	X10	Y10	Z10	X11	Y11	Z11	X12	Y12	Z12	X13	Y13	Z13	X14	Y14	Z14	X15	Y15	Z15	X16	Y16	Z16	X17	Y17	Z17	X18	Y18	Z18	X19	Y19	Z19	X20	Y20	Z20	X21	Y21	Z21	X22	Y22	Z22	X23	Y23	Z23	X24	Y24	Z24	X25	Y25	Z25	X26	Y26	Z26	X27	Y27	Z27	X28	Y28	Z28	X29	Y29	Z29	X30	Y30	Z30	X31	Y31	Z31	X32	Y32	Z32	X33	Y33	Z33	X34	Y34	Z34	X35	Y35	Z35	X36	Y36	Z36	X37	Y37	Z37	X38	Y38	Z38	X39	Y39	Z39	X40	Y40	Z40	X41	Y41	Z41	X42	Y42	Z42	X43	Y43	Z43	X44	Y44	Z44	X45	Y45	Z45	X46	Y46	Z46	X47	Y47	Z47
																																																																																																																																														
1	0	-1070.02551	1667.38354	950.46832	-1061.34644	1659.35706	1082.06738	-1201.53381	1608.80432	959.66199	-1190.80835	1605.80334	1088.61377	-1194.3418	1455.25452	1013.44647	-1227.86938	1126.65405	1025.57556	-1085.09692	1377.36292	1014.81787	-1047.8855	1200.48877	1010.9967	-1266.89575	1285.1825	1095.32874	-1137.94543	1407.63708	852.34235	-1147.39124	1204.63818	780.84937	-1154.85547	1092.28186	768.14777	-1122.71118	946.01746	742.61304	-1050.32043	836.69177	778.70099	-1113.42664	827.11755	745.18011	-1064.43799	750.03467	740.81189	-1129.54883	1411.25989	1174.94067	-1167.68237	1215.65015	1268.14197	-1157.40283	1094.66809	1283.26563	-1125.62659	979.31879	1298.99402	-1043.2301	853.95001	1263.79456	-1096.76355	844.67157	1303.6615	-1047.78467	776.31866	1304.24109	-1053.42236	967.79779	911.78912	-1052.4519	967.49634	1132.33911	-1211.41016	994.46069	939.86749	-1203.52454	997.70508	1108.4104	-1078.74768	654.80341	843.52222	-1038.87341	496.28525	868.85492	-1097.39124	250.01617	873.30078	-1111.07617	76.91557	907.96222	-1143.93018	61.21954	959.71448	-972.86603	42.10612	888.46509	-1128.35986	632.83319	1173.50647	-1137.26587	507.43777	1147.59387	-1208.9021	250.62271	1132.68457	-1241.797	67.31828	1080.95386	-1282.79663	44.23602	1036.17603	-1089.1947	32.09665	1081.56042	-1167.55688	1703.71619	1014.98962	NaN	NaN	NaN	NaN	NaN	NaN	NaN	NaN	NaN	NaN	NaN	NaN	NaN	NaN	NaN	NaN	NaN	NaN	NaN	NaN	NaN
2	0.01	-1065.23889	1666.97009	950.17822	-1056.28333	1659.02612	1081.81921	-1196.80212	1608.6283	959.77893	-1185.93188	1605.70764	1088.95532	-1189.7074	1455.01147	1013.69159	-1223.37683	1126.39172	1026.01538	-1080.46484	1377.09399	1014.94568	-1043.42493	1200.22156	1011.19611	-1262.20288	1285.04846	1095.86731	-1133.62988	1407.27637	852.53802	-1144.32446	1204.34351	781.07007	-1152.84277	1092.12976	768.40326	-1122.28589	945.55804	742.48511	-1050.87549	835.38257	777.99274	-1114.24207	826.61206	744.88995	-1066.24646	748.98108	740.13977	-1124.66016	1411.13879	1175.09607	-1162.59973	1215.59155	1268.55823	-1152.229	1094.63562	1283.72668	-1120.36584	979.32147	1299.47754	-1037.84888	853.90588	1264.19568	-1091.4469	844.88165	1304.39563	-1042.32251	776.39429	1304.74829	-1048.74536	967.67377	912.28552	-1048.33582	967.05487	1132.8158	-1206.83862	994.21466	940.24188	-1199.19287	997.34033	1108.79529	-1073.84485	654.88562	843.3598	-1033.22986	496.44882	868.5932	-1083.35352	248.3197	872.7876	-1091.23657	74.9256	907.20813	-1121.70215	56.48419	960.90149	-951.63251	42.80317	889.19019	-1125.15601	632.45599	1173.58997	-1134.55127	507.09128	1147.75745	-1208.07703	250.64871	1132.97961	-1241.58533	67.48275	1080.96948	-1282.67395	44.55027	1036.20166	-1089.15259	32.06134	1081.69641	-1162.53052	1703.50256	1014.92877	NaN	NaN	NaN	NaN	NaN	NaN	NaN	NaN	NaN	NaN	NaN	NaN	NaN	NaN	NaN	NaN	NaN	NaN	NaN	NaN	NaN
3	0.02	-1060.48279	1666.48242	949.92896	-1051.14795	1658.68762	1081.51685	-1192.06775	1608.35828	959.88373	-1180.90662	1605.55872	1088.99487	-1185.04102	1454.70178	1013.88751	-1218.93335	1126.1001	1026.40649	-1075.89001	1376.72864	1014.99194	-1038.86804	1199.87305	1011.42352	-1257.54651	1284.89624	1096.33472	-1129.26746	1406.90613	852.64856	-1141.34448	1204.05774	781.22668	-1150.73242	1091.90637	768.61761	-1121.68958	945.00421	742.57233	-1051.28479	834.1897	777.38055	-1114.88647	826.10028	744.59918	-1067.74524	747.88452	739.53558	-1119.79675	1410.96753	1175.20959	-1157.55176	1215.47913	1268.90125	-1147.07642	1094.5127	1284.13696	-1115.08264	979.2511	1299.90027	-1032.5061	853.97559	1264.62036	-1086.0625	844.8385	1304.85522	-1036.89526	776.49292	1305.29346	-1044.03784	967.56317	912.70483	-1043.94849	966.5694	1133.15479	-1202.21704	993.8974	940.53601	-1194.87744	996.95087	1109.09631	-1069.40784	654.73297	843.1366	-1027.66943	496.5733	868.41162	-1069.6261	246.89116	872.31628	-1071.1687	73.22793	907.02374	-1104.12732	56.78827	958.09601	-930.89362	43.71008	889.89825	-1121.84106	632.08588	1173.6123	-1131.755	506.71878	1147.96765	-1206.14832	250.63492	1132.74695	-1241.34229	67.64855	1080.97412	-1282.58215	44.95277	1036.16016	-1088.99646	31.88578	1081.62427	-1157.53564	1703.26807	1014.83881	NaN	NaN	NaN	NaN	NaN	NaN	NaN	NaN	NaN	NaN	NaN	NaN	NaN	NaN	NaN	NaN	NaN	NaN	NaN	NaN	NaN
4	0.03	-1055.33777	1665.79504	949.72357	-1046.12	1658.31677	1081.18127	-1187.34106	1608.0509	959.89734	-1175.73279	1605.36865	1088.77466	-1180.40015	1454.39917	1014.04895	-1214.46777	1125.75513	1026.68481	-1071.33057	1376.31335	1015.05396	-1034.37988	1199.54163	1011.61975	-1252.8927	1284.66602	1096.68079	-1124.86987	1406.44165	852.73444	-1138.29102	1203.79077	781.30444	-1148.6416	1091.69995	768.76782	-1121.20837	944.70416	742.14197	-1051.69666	833.10944	776.6142	-1115.37158	825.59302	744.24445	-1068.9939	746.90723	738.94867	-1114.96448	1410.72253	1175.27344	-1152.49426	1215.29749	1269.17627	-1141.99316	1094.39905	1284.51624	-1109.85645	979.14374	1300.29407	-1027.29236	853.97504	1264.927	-1080.60962	844.73059	1305.24109	-1031.25745	776.34784	1305.31543	-1039.38147	967.29083	913.12213	-1039.7666	966.16382	1133.61829	-1197.58716	993.55518	940.73474	-1190.5835	996.54797	1109.30762	-1064.74121	654.83905	843.00507	-1022.08759	496.64282	868.21759	-1056.15039	245.7554	871.91406	-1051.83899	72.14635	906.35901	-1084.255	54.99731	957.16479	-910.61035	44.82932	890.49963	-1118.52954	631.71777	1173.64001	-1128.96045	506.41699	1148.1123	-1205.11108	250.69119	1132.76965	-1241.1178	67.8707	1080.96399	-1282.40234	45.23783	1036.14478	-1088.92163	31.76936	1081.62744	-1152.54846	1702.96399	1014.69824	NaN	NaN	NaN	NaN	NaN	NaN	NaN	NaN	NaN	NaN	NaN	NaN	NaN	NaN	NaN	NaN	NaN	NaN	NaN	NaN	NaN
5	0.04	-1050.82275	1665.45435	949.25159	-1041.08276	1657.93445	1080.81653	-1182.5896	1607.70117	959.87195	-1170.92261	1605.18677	1088.97339	-1175.70764	1454.06604	1014.11475	-1210.00757	1125.42224	1026.91052	-1066.6001	1375.94202	1014.9931	-1029.90417	1199.17041	1011.73792	-1248.22705	1284.41772	1096.95801	-1120.44934	1405.98755	852.74274	-1135.2356	1203.43359	781.32257	-1146.42029	1091.45129	768.83105	-1120.37939	944.29364	742.01929	-1051.67761	832.04822	776.08282	-1115.75037	825.09583	743.86377	-1070.01538	745.97089	738.44019	-1110.13977	1410.46924	1175.28894	-1147.46667	1215.06934	1269.36841	-1136.93738	1094.21045	1284.82959	-1104.67725	978.9856	1300.62537	-1021.98346	853.88263	1265.16638	-1075.32202	844.63098	1305.6073	-1026.07849	776.37744	1305.97888	-1034.64551	967.13116	913.58325	-1035.45642	965.8399	1133.94946	-1192.91345	993.14667	940.84552	-1186.34534	996.13928	1109.43994	-1060.53918	654.61218	842.87244	-1016.38196	496.79529	867.90875	-1042.99719	244.93813	871.44324	-1033.22632	71.41588	905.70258	-1065.96851	54.47629	956.34357	-890.98071	46.34312	891.00751	-1115.20227	631.37714	1173.68103	-1125.99524	506.02936	1148.17236	-1203.98547	250.87231	1132.98889	-1240.8418	68.08052	1080.94006	-1282.29102	45.6306	1036.12671	-1088.901	31.71749	1081.63684	-1147.56079	1702.61194	1014.4621	NaN	NaN	NaN	NaN	NaN	NaN	NaN	NaN	NaN	NaN	NaN	NaN	NaN	NaN	NaN	NaN	NaN	NaN	NaN	NaN	NaN
6	0.05	-1045.63391	1664.68604	949.00873	-1036.09143	1657.53345	1080.48877	-1177.79968	1607.28772	959.78815	-1165.97839	1604.93335	1088.87683	-1171.03369	1453.69641	1014.14417	-1205.57361	1125.03992	1027.026	-1062.10938	1375.49719	1014.99225	-1025.62561	1198.82056	1011.76434	-1243.6084	1284.15137	1097.19348	-1116.01453	1405.52332	852.70819	-1132.19946	1203.1554	781.30743	-1144.11475	1091.24072	768.87604	-1119.40576	943.87054	741.87164	-1051.67627	830.9469	775.5639	-1115.87073	824.63623	743.62323	-1070.83765	745.06781	737.9856	-1105.36169	1410.16833	1175.25916	-1142.55969	1214.87354	1269.62158	-1131.90332	1093.98706	1285.0979	-1099.526	978.79651	1300.89319	-1016.763	853.73395	1265.37268	-1069.94031	844.34283	1305.76477	-1020.69604	776.22162	1306.1676	-1029.86719	966.80365	914.07849	-1031.27759	965.30505	1134.42896	-1188.32605	992.73608	940.89575	-1182.1377	995.68829	1109.47815	-1057.05542	654.36749	842.94519	-1010.50439	496.93512	867.47491	-1030.23328	244.38083	870.97919	-1015.24713	71.21101	905.16162	-1047.66382	53.69643	955.59552	-872.00543	48.19324	891.62616	-1111.82532	630.97485	1173.61865	-1123.03894	505.65387	1148.16785	-1202.22095	250.63786	1132.59351	-1240.61084	68.35341	1080.88708	-1282.21936	46.03308	1036.03088	-1088.86804	31.68315	1081.60535	-1142.67285	1702.26147	1014.23639	NaN	NaN	NaN	NaN	NaN	NaN	NaN	NaN	NaN	NaN	NaN	NaN	NaN	NaN	NaN	NaN	NaN	NaN	NaN	NaN	NaN
7	0.06	-1040.80273	1664.09241	948.65588	-1031.12122	1657.11902	1080.10352	-1172.97803	1606.80994	959.67462	-1161.06836	1604.65637	1088.75696	-1166.34509	1453.29321	1014.10156	-1201.13538	1124.63708	1027.1095	-1057.47107	1375.04175	1014.8446	-1020.90857	1198.33313	1011.86499	-1239.01123	1283.86572	1097.33374	-1111.57654	1405.05652	852.62274	-1129.04565	1202.80444	781.25726	-1141.77747	1090.93799	768.82611	-1118.32947	943.44275	741.68048	-1051.36487	829.97473	775.07629	-1115.88647	824.30896	743.4176	-1071.46411	744.24841	737.58813	-1100.57202	1409.82166	1175.18127	-1137.63611	1214.58972	1269.74463	-1126.85925	1093.70093	1285.29053	-1094.41492	978.5722	1301.12048	-1011.61633	853.55688	1265.48035	-1064.78357	844.25909	1306.12036	-1015.19012	775.90234	1306.00293	-1024.58606	966.55817	914.43433	-1027.05945	965.08453	1134.79907	-1183.76428	992.32306	940.90063	-1177.93738	995.20349	1109.46057	-1050.23682	654.3811	842.02576	-1004.88098	497.08286	867.27856	-1017.84479	243.97955	870.57855	-997.87415	71.28529	904.59161	-1029.99573	53.14209	954.8974	-853.76355	50.47758	892.30762	-1108.46497	630.58655	1173.60132	-1120.08459	505.24551	1148.20715	-1200.85071	250.67146	1132.46094	-1240.41223	68.66068	1080.72314	-1282.07471	46.40128	1035.93652	-1088.79565	31.73529	1081.58728	-1137.7301	1701.849	1013.96027	NaN	NaN	NaN	NaN	NaN	NaN	NaN	NaN	NaN	NaN	NaN	NaN	NaN	NaN	NaN	NaN	NaN	NaN	NaN	NaN	NaN
8	0.07	-1036.43811	1663.73804	948.14508	-1026.18835	1656.66418	1079.72095	-1168.27393	1606.41858	959.48212	-1155.9353	1604.29395	1088.25366	-1161.69006	1452.89697	1014.008	-1196.71704	1124.1908	1027.10779	-1052.90601	1374.54407	1014.71863	-1016.39819	1197.8949	1011.88232	-1234.39685	1283.54736	1097.36084	-1107.11084	1404.53625	852.48688	-1125.8313	1202.44641	781.23395	-1139.34668	1090.69409	768.78784	-1116.98633	942.99146	741.51843	-1050.96179	829.07562	774.71295	-1115.36938	823.70105	743.10138	-1071.73132	743.41827	737.22052	-1095.86511	1409.45203	1175.04395	-1132.78259	1214.28406	1269.75476	-1121.89893	1093.38684	1285.42969	-1089.32507	978.29517	1301.25598	-1006.46002	853.36041	1265.63745	-1059.60852	844.0531	1306.30579	-1010.12762	775.86719	1306.47034	-1019.88544	966.05048	915.10126	-1022.67938	964.62897	1135.19043	-1178.79163	991.82007	940.85083	-1173.71082	994.69293	1109.38904	-1045.02014	654.24927	841.46326	-998.79199	497.32208	866.58844	-1005.84265	243.88364	870.1203	-981.15643	71.60213	904.04388	-1013.08881	52.84371	954.24738	-836.20966	53.0957	892.9906	-1105.17188	630.19171	1173.4032	-1117.19543	504.91455	1148.22693	-1199.52429	250.7012	1132.40479	-1240.21582	68.98145	1080.62061	-1281.97144	46.79513	1035.80957	-1089.06567	31.54787	1081.61963	-1132.77637	1701.46484	1013.59705	NaN	NaN	NaN	NaN	NaN	NaN	NaN	NaN	NaN	NaN	NaN	NaN	NaN	NaN	NaN	NaN	NaN	NaN	NaN	NaN	NaN
